<svg width="67" height="67" viewBox="0 0 67 67" fill="none" xmlns="http://www.w3.org/2000/svg">
<path d="M4.86798 33.9855L2.53031 38.6598C2.2533 39.2138 2.10423 39.8228 2.09411 40.4421C2.08398 41.0614 2.21305 41.675 2.4718 42.2377C2.73055 42.8004 3.11236 43.2979 3.58906 43.6933C4.06576 44.0887 4.62518 44.372 5.22601 44.5223L6.41945 44.8196L7.70187 51.8745C7.93888 53.1815 8.6274 54.3637 9.64723 55.2148C10.6671 56.0659 11.9534 56.5317 13.2817 56.531C13.5497 56.5312 13.8174 56.5119 14.0826 56.4734L20.412 55.57C21.4431 57.3222 21.9861 59.3187 21.9844 61.3519V65.9529H24.0781V61.3466C24.0777 59.1972 23.5622 57.0793 22.5748 55.1701L26.3813 54.4163L25.9625 52.3644L20.7543 53.405L13.7811 54.4017C12.868 54.5232 11.943 54.2911 11.1956 53.7527C10.4482 53.2143 9.93499 52.4106 9.76108 51.506L8.35722 43.7811C8.32118 43.5831 8.22885 43.3997 8.09127 43.2529C7.95369 43.106 7.7767 43.0019 7.58148 42.953L5.73375 42.4903C5.43718 42.4162 5.16105 42.2763 4.92574 42.0812C4.69044 41.886 4.50197 41.6405 4.37425 41.3628C4.24654 41.085 4.18283 40.7821 4.18783 40.4765C4.19284 40.1708 4.26643 39.8702 4.40317 39.5968L8.27033 31.874C8.39393 31.6256 8.41389 31.3383 8.32581 31.0752C7.66622 29.1021 7.32933 27.0356 7.32814 24.9552C7.327 22.7572 8.07016 20.6237 9.43654 18.9021L14.4752 33.2443C16.6382 39.4344 20.0295 45.1237 24.4455 49.9708C28.8616 54.8179 34.2114 58.7228 40.1738 61.4513L40.8386 66.1026L42.9114 65.8053L42.4278 62.4218C43.0098 62.6552 43.5887 62.8918 44.1813 63.1033C49.462 64.992 55.0288 65.956 60.6371 65.9529H64.9063C65.1481 65.9531 65.3825 65.8695 65.5698 65.7165C65.757 65.5634 65.8854 65.3502 65.9333 65.1132C65.9811 64.8761 65.9454 64.6298 65.8323 64.4161C65.7191 64.2024 65.5354 64.0344 65.3124 63.9408L55.4949 59.8067C53.9021 59.1323 52.394 58.2732 51.0017 57.2471C55.4209 59.0184 60.0594 60.184 64.7911 60.7122C64.8293 60.7164 64.8678 60.7185 64.9063 60.7185C65.1441 60.7209 65.3758 60.6423 65.563 60.4955C65.7502 60.3487 65.8818 60.1425 65.9361 59.9109C65.9905 59.6793 65.9644 59.4361 65.862 59.2214C65.7597 59.0066 65.5873 58.8331 65.3732 58.7294C62.1515 57.1175 59.2274 54.9694 56.726 52.377C59.1202 54.0426 61.8819 55.104 64.7754 55.4705C65.0017 55.4988 65.231 55.4525 65.4285 55.3385C65.6261 55.2245 65.781 55.0492 65.8697 54.8391C65.9585 54.6291 65.9762 54.3958 65.9202 54.1747C65.8642 53.9536 65.7376 53.7569 65.5595 53.6144C62.307 51.0188 59.9075 47.5074 58.6711 43.534L58.1717 41.9386C56.361 36.14 54.8563 30.2501 53.6639 24.2935C52.3386 17.7442 48.7921 11.8535 43.6242 7.61762C38.4562 3.38172 31.984 1.06055 25.3019 1.04663C18.8717 1.05522 12.7074 3.61341 8.16051 8.16025C3.61367 12.7071 1.05547 18.8715 1.04689 25.3017C1.04448 26.9353 1.38308 28.5515 2.04105 30.0468C2.69902 31.5421 3.66186 32.8836 4.86798 33.9855ZM25.3019 3.14038C31.5003 3.15435 37.5037 5.30806 42.2974 9.23746C47.091 13.1669 50.3809 18.6309 51.611 24.706C52.8178 30.7344 54.3407 36.6951 56.1732 42.5636L56.6726 44.1601C57.6262 47.2251 59.2141 50.055 61.3333 52.466C57.9161 51.1568 55.049 48.7189 53.2074 45.5566L45.9212 32.9763C45.7861 32.7454 45.5676 32.5749 45.3108 32.5C45.0539 32.425 44.7781 32.4513 44.54 32.5733C44.3019 32.6954 44.1195 32.904 44.0304 33.1563C43.9413 33.4086 43.9522 33.6855 44.0609 33.93L48.6797 44.1894C51.1216 49.6046 54.9392 54.2859 59.7525 57.7674C53.6032 56.4251 47.7617 53.9365 42.5335 50.4319C39.0773 45.3969 36.609 39.7512 35.2598 33.795L33.4801 25.9434L31.4366 26.4082L33.2163 34.2598C34.229 38.7095 35.842 43.0009 38.011 47.016C32.6369 42.4534 28.2792 36.8147 25.2192 30.4638L22.9266 25.7162L21.0422 26.627L23.3338 31.3746C28.0219 41.1349 35.627 49.1974 45.0973 54.4467C47.6293 57.6434 50.9258 60.1507 54.6825 61.7371L59.7002 63.8497C50.1609 63.6591 40.9074 60.5594 33.1782 54.9654C25.449 49.3714 19.6127 41.5501 16.4506 32.5481L11.077 17.2564L13.2336 15.46L11.8915 13.852L9.5025 15.8411C8.16473 16.953 7.08864 18.3463 6.35091 19.9216C5.61317 21.497 5.23195 23.2156 5.23439 24.9552C5.23414 27.1134 5.5599 29.2593 6.20065 31.3202L5.84786 32.0258C4.10709 30.2206 3.13631 27.8094 3.14064 25.3017C3.14729 19.4262 5.48427 13.7932 9.63888 9.63862C13.7935 5.48401 19.4264 3.14703 25.3019 3.14038Z" fill="#202223"/>
<path d="M18.8438 13.6094C19.4869 13.6107 20.1099 13.8342 20.6073 14.2421C21.1046 14.65 21.4458 15.2172 21.573 15.8477L22.0053 18.0063C22.0534 18.243 22.1818 18.4557 22.3687 18.6086C22.5557 18.7614 22.7898 18.8449 23.0312 18.8449C23.2727 18.8449 23.5068 18.7614 23.6938 18.6086C23.8807 18.4557 24.0091 18.243 24.0572 18.0063L24.4895 15.8519C24.6159 15.2206 24.9567 14.6524 25.4541 14.2437C25.9515 13.835 26.575 13.6109 27.2188 13.6094C27.4964 13.6094 27.7627 13.4992 27.959 13.3028C28.1553 13.1065 28.2656 12.8402 28.2656 12.5626C28.2656 12.2849 28.1553 12.0186 27.959 11.8223C27.7627 11.626 27.4964 11.5157 27.2188 11.5157C26.5756 11.5144 25.9526 11.2909 25.4552 10.883C24.9579 10.4752 24.6167 9.90798 24.4895 9.27748L24.0572 7.11882C24.0091 6.88217 23.8807 6.6694 23.6938 6.51658C23.5068 6.36376 23.2727 6.28027 23.0312 6.28027C22.7898 6.28027 22.5557 6.36376 22.3687 6.51658C22.1818 6.6694 22.0534 6.88217 22.0053 7.11882L21.573 9.27329C21.4466 9.90456 21.1058 10.4727 20.6084 10.8814C20.111 11.2901 19.4875 11.5142 18.8438 11.5157C18.5661 11.5157 18.2998 11.626 18.1035 11.8223C17.9072 12.0186 17.7969 12.2849 17.7969 12.5626C17.7969 12.8402 17.9072 13.1065 18.1035 13.3028C18.2998 13.4992 18.5661 13.6094 18.8438 13.6094ZM23.0312 11.2299C23.3387 11.7417 23.7367 12.1933 24.2058 12.5626C23.7367 12.9319 23.3387 13.3834 23.0312 13.8952C22.7238 13.3834 22.3258 12.9319 21.8567 12.5626C22.3258 12.1933 22.7238 11.7417 23.0312 11.2299Z" fill="#202223"/>
<path d="M64.9062 27.2188C64.2631 27.2175 63.6401 26.994 63.1427 26.5862C62.6454 26.1783 62.3042 25.6111 62.177 24.9806L61.7447 22.8219C61.6966 22.5853 61.5682 22.3725 61.3813 22.2197C61.1943 22.0669 60.9602 21.9834 60.7188 21.9834C60.4773 21.9834 60.2432 22.0669 60.0562 22.2197C59.8693 22.3725 59.7409 22.5853 59.6928 22.8219L59.2605 24.9764C59.1341 25.6077 58.7933 26.1758 58.2959 26.5845C57.7985 26.9932 57.175 27.2173 56.5312 27.2188C56.2536 27.2188 55.9873 27.3291 55.791 27.5254C55.5947 27.7218 55.4844 27.988 55.4844 28.2657C55.4844 28.5433 55.5947 28.8096 55.791 29.006C55.9873 29.2023 56.2536 29.3126 56.5312 29.3126C57.1744 29.3139 57.7974 29.5374 58.2948 29.9452C58.7921 30.3531 59.1333 30.9203 59.2605 31.5508L59.6928 33.7094C59.7409 33.9461 59.8693 34.1589 60.0562 34.3117C60.2432 34.4645 60.4773 34.548 60.7188 34.548C60.9602 34.548 61.1943 34.4645 61.3813 34.3117C61.5682 34.1589 61.6966 33.9461 61.7447 33.7094L62.177 31.555C62.3034 30.9237 62.6442 30.3556 63.1416 29.9469C63.639 29.5382 64.2625 29.3141 64.9062 29.3126C65.1839 29.3126 65.4502 29.2023 65.6465 29.006C65.8428 28.8096 65.9531 28.5433 65.9531 28.2657C65.9531 27.988 65.8428 27.7218 65.6465 27.5254C65.4502 27.3291 65.1839 27.2188 64.9062 27.2188ZM60.7188 29.5984C60.4113 29.0866 60.0133 28.635 59.5442 28.2657C60.0133 27.8964 60.4113 27.4448 60.7188 26.933C61.0262 27.4448 61.4242 27.8964 61.8933 28.2657C61.4242 28.635 61.0262 29.0866 60.7188 29.5984Z" fill="#202223"/>
<path d="M49.2031 8.37507C49.8463 8.37637 50.4693 8.59987 50.9667 9.00774C51.464 9.41561 51.8051 9.98279 51.9323 10.6133L52.3647 12.7719C52.4127 13.0086 52.5411 13.2214 52.7281 13.3742C52.9151 13.527 53.1491 13.6105 53.3906 13.6105C53.6321 13.6105 53.8662 13.527 54.0531 13.3742C54.2401 13.2214 54.3685 13.0086 54.4166 12.7719L54.8489 10.6175C54.9753 9.98621 55.316 9.41806 55.8135 9.00936C56.3109 8.60066 56.9343 8.37657 57.5781 8.37507C57.8558 8.37507 58.1221 8.26478 58.3184 8.06845C58.5147 7.87212 58.625 7.60585 58.625 7.3282C58.625 7.05055 58.5147 6.78427 58.3184 6.58795C58.1221 6.39162 57.8558 6.28132 57.5781 6.28132C56.9349 6.28003 56.3119 6.05653 55.8146 5.64866C55.3172 5.24079 54.9761 4.6736 54.8489 4.0431L54.4166 1.88445C54.3685 1.64779 54.2401 1.43503 54.0531 1.28221C53.8662 1.12938 53.6321 1.0459 53.3906 1.0459C53.1491 1.0459 52.9151 1.12938 52.7281 1.28221C52.5411 1.43503 52.4127 1.64779 52.3647 1.88445L51.9323 4.03892C51.806 4.67019 51.4652 5.23834 50.9678 5.64704C50.4704 6.05574 49.8469 6.27983 49.2031 6.28132C48.9255 6.28132 48.6592 6.39162 48.4629 6.58795C48.2665 6.78427 48.1562 7.05055 48.1562 7.3282C48.1562 7.60585 48.2665 7.87212 48.4629 8.06845C48.6592 8.26478 48.9255 8.37507 49.2031 8.37507ZM53.3906 5.99553C53.6981 6.50734 54.0961 6.95892 54.5652 7.3282C54.0961 7.69748 53.6981 8.14906 53.3906 8.66087C53.0832 8.14906 52.6852 7.69748 52.216 7.3282C52.6852 6.95892 53.0832 6.50734 53.3906 5.99553Z" fill="#202223"/>
</svg>
