<svg width="59" height="59" viewBox="0 0 59 59" fill="none" xmlns="http://www.w3.org/2000/svg">
<g clip-path="url(#clip0_1_174)">
<path d="M57.313 8.06595C56.445 7.19651 55.0368 7.19501 54.1688 8.06226L27.4929 34.6678L17.8682 24.2145C17.0366 23.3118 15.6305 23.2533 14.7263 24.0848C13.8227 24.9164 13.7649 26.3232 14.5965 27.2268L25.7888 39.3818C26.1987 39.8273 26.7723 40.086 27.3772 40.0986C27.3934 40.0993 27.4091 40.0993 27.4246 40.0993C28.0124 40.0993 28.5779 39.8658 28.9945 39.4507L57.3086 11.2108C58.1787 10.3437 58.1802 8.93539 57.313 8.06595Z" fill="#202223"/>
<path d="M56.7763 27.2763C55.5482 27.2763 54.5528 28.2717 54.5528 29.5C54.5528 43.3146 43.3146 54.5528 29.5 54.5528C15.6862 54.5528 4.44724 43.3146 4.44724 29.5C4.44724 15.6862 15.6862 4.44724 29.5 4.44724C30.7282 4.44724 31.7237 3.45185 31.7237 2.22368C31.7237 0.995395 30.7282 0 29.5 0C13.2335 0 0 13.2335 0 29.5C0 45.7658 13.2335 59 29.5 59C45.7658 59 59 45.7658 59 29.5C59 28.2718 58.0046 27.2763 56.7763 27.2763Z" fill="#202223"/>
</g>
<defs>
<clipPath id="clip0_1_174">
<rect width="59" height="59" fill="white"/>
</clipPath>
</defs>
</svg>
