<svg width="80" height="80" viewBox="0 0 80 80" fill="none" xmlns="http://www.w3.org/2000/svg">
<path d="M73.75 49.9998C58.1087 49.6823 57.0087 50.6261 49.5425 49.1836C48.3387 48.9511 47.2987 48.7498 46.25 48.7498C44.0862 48.7498 42.0612 51.0098 42.7075 53.5398C43.1437 55.2636 45 56.1973 45 59.9998C45 65.5361 41.3525 67.4998 38.23 67.4998C36.3 67.4998 30 66.6886 30 56.2498C30 55.4823 30.095 54.8098 30.1862 54.1573C30.4362 52.3798 30.72 50.3661 27.8825 49.0786C26.6237 48.5073 25.4462 48.7561 23.145 49.1823C15.9187 50.5236 13.95 49.7661 6.24996 49.9998C4.59746 49.9998 4.59496 52.4998 6.24996 52.4998C13.7487 52.2586 16.0337 53.0436 23.6012 51.6411C24.775 51.4236 25.7025 51.2511 26.5162 51.2511C26.5462 51.2511 26.6637 51.2711 26.85 51.3548C27.985 51.8698 27.9487 52.1273 27.7112 53.8086C27.6125 54.5111 27.5 55.3073 27.5 56.2498C27.5 69.6136 37.1325 69.9998 38.23 69.9998C42.6937 69.9998 47.5 66.8711 47.5 59.9998C47.5 55.5673 45.3537 53.7998 45.13 52.9223C44.7875 51.5861 46.375 51.1498 46.25 51.2498C47.0587 51.2498 47.945 51.4211 49.0675 51.6386C56.7537 53.1236 59.3137 52.1848 73.75 52.4998C75.405 52.4998 75.4037 49.9998 73.75 49.9998Z" fill="#202223"/>
<path d="M38.23 64.9999C40.9037 64.9999 42.5 63.1312 42.5 59.9999C42.5 58.1224 41.8637 57.1774 41.3025 56.3437C40.6625 55.3924 40 54.4099 40 51.2499C40 34.2062 52.2175 12.0799 52.3413 11.8587C53.12 10.4637 51.0762 9.22744 50.2025 10.5674C49.48 11.6774 32.5 37.9637 32.5 56.2499C32.5 64.1474 36.5075 64.9999 38.23 64.9999ZM39.7425 36.2699C38.41 41.2387 37.5 46.4037 37.5 51.2499C37.5 55.1724 38.4587 56.5962 39.2287 57.7399C39.71 58.4549 40 58.8849 40 59.9999C40 62.4999 38.8487 62.4999 38.23 62.4999C35.56 62.4999 35 59.1012 35 56.2499C35 50.1787 37.0525 43.0299 39.7425 36.2699Z" fill="#202223"/>
<path d="M15 38.7498C19.205 38.7498 21.25 40.7948 21.25 44.9998C21.25 46.6523 23.75 46.6548 23.75 44.9998C23.75 40.7948 25.795 38.7498 30 38.7498C31.6525 38.7498 31.655 36.2498 30 36.2498C25.795 36.2498 23.75 34.2048 23.75 29.9998C23.75 28.3473 21.25 28.3448 21.25 29.9998C21.25 34.2048 19.205 36.2498 15 36.2498C13.3475 36.2498 13.345 38.7498 15 38.7498ZM22.5 35.1261C23.0925 36.1111 23.8887 36.9073 24.8737 37.4998C23.8887 38.0923 23.0925 38.8886 22.5 39.8736C21.9075 38.8886 21.1112 38.0923 20.1262 37.4998C21.1112 36.9073 21.9075 36.1111 22.5 35.1261Z" fill="#202223"/>
<path d="M27.5 19.9998C30.8637 19.9998 32.5 21.6361 32.5 24.9998C32.5 26.6523 35 26.6548 35 24.9998C35 21.6361 36.6362 19.9998 40 19.9998C41.6525 19.9998 41.655 17.4998 40 17.4998C36.6362 17.4998 35 15.8636 35 12.4998C35 10.8473 32.5 10.8448 32.5 12.4998C32.5 15.8636 30.8637 17.4998 27.5 17.4998C25.8475 17.4998 25.845 19.9998 27.5 19.9998ZM33.75 17.1736C34.1737 17.7986 34.7012 18.3261 35.3262 18.7498C34.7012 19.1736 34.1737 19.7011 33.75 20.3261C33.3262 19.7011 32.7987 19.1736 32.1737 18.7498C32.7987 18.3261 33.3262 17.7986 33.75 17.1736Z" fill="#202223"/>
<path d="M47.4999 37.5001C45.8449 37.5001 45.8462 40.0001 47.4999 40.0001C50.8637 40.0001 52.4999 41.6363 52.4999 45.0001C52.4999 46.6538 54.9999 46.6551 54.9999 45.0001C54.9999 41.6363 56.6362 40.0001 59.9999 40.0001C61.6549 40.0001 61.6537 37.5001 59.9999 37.5001C56.6362 37.5001 54.9999 35.8638 54.9999 32.5001C54.9999 30.8463 52.4999 30.8451 52.4999 32.5001C52.4999 35.8638 50.8637 37.5001 47.4999 37.5001ZM53.7499 37.1738C54.1737 37.7988 54.7012 38.3263 55.3262 38.7501C54.7012 39.1738 54.1737 39.7013 53.7499 40.3263C53.3262 39.7013 52.7987 39.1738 52.1737 38.7501C52.7987 38.3263 53.3262 37.7988 53.7499 37.1738Z" fill="#202223"/>
</svg>
