<svg width="71" height="71" viewBox="0 0 71 71" fill="none" xmlns="http://www.w3.org/2000/svg">
<path d="M12.5526 38.5463C10.9451 39.7245 9.98438 41.6182 9.98438 43.6118V43.8203C9.98438 46.7002 11.0416 49.4282 12.9076 51.5582C11.0205 53.9289 9.98438 56.8521 9.98438 59.9062V68.7812C9.98438 69.3936 10.4814 69.8906 11.0938 69.8906H59.9062C60.5186 69.8906 61.0156 69.3936 61.0156 68.7812V59.9062C61.0156 55.228 58.5584 50.9137 54.5946 48.4841L53.7082 43.7593C52.6687 38.2091 52.1406 32.5335 52.1406 26.8901C52.1406 25.2017 52.0463 23.4943 51.86 21.8159C51.2931 16.7116 48.5174 12.1521 44.2452 9.30433C41.9566 7.77783 39.3362 6.88811 36.6094 6.6973V2.21875H34.3906V6.69175C31.6793 6.85816 29.0168 7.63361 26.6272 8.96042L26.5052 9.02809C22.365 11.3289 19.2166 15.0564 17.6413 19.5228L16.513 22.72C15.1263 26.6583 14.4219 30.7707 14.4219 34.9453C14.4219 36.342 13.7496 37.6699 12.5526 38.5463ZM12.2031 59.9062C12.2031 57.4357 13.0119 55.0638 14.4951 53.118C15.8585 54.3893 16.6406 56.1543 16.6406 58.0314C16.6406 60.2468 17.699 62.3635 19.4718 63.6937C20.9849 64.8285 22.8587 65.4531 24.7502 65.4531C26.8746 65.4531 29.0013 64.9506 30.8994 64.001C31.9034 63.4995 33.0272 63.2344 34.1488 63.2344H34.3906V67.6719H12.2031V59.9062ZM58.7969 59.9062V67.6719H36.6094V59.9062H40.9681C46.3231 59.9062 51.3574 57.8206 55.1437 54.0343C55.4022 53.7758 55.5176 53.4053 55.4499 53.0459L55.1981 51.7002C57.4545 53.7936 58.7969 56.7501 58.7969 59.9062ZM43.0138 11.1503C46.7391 13.6331 49.1597 17.6102 49.6534 22.0599C49.8309 23.6574 49.9208 25.2827 49.9208 26.8901C49.9208 32.67 50.461 38.4831 51.526 44.1675L53.1579 52.8695C49.8431 55.9802 45.5365 57.6875 40.9681 57.6875H36.6094V8.92381C38.8958 9.11019 41.0912 9.86789 43.0138 11.1503ZM13.9349 40.2847C15.6289 39.0422 16.6406 37.0465 16.6406 34.9453C16.6406 31.0226 17.3018 27.1586 18.6064 23.4588L19.7347 20.2616C21.1292 16.3067 23.917 13.0052 27.5846 10.9684L27.7055 10.9007C29.7645 9.75584 32.0554 9.08023 34.3906 8.91605V61.0156H34.1488C32.6844 61.0156 31.2178 61.3618 29.9065 62.0163C28.3146 62.8139 26.5318 63.2344 24.7502 63.2344C23.3357 63.2344 21.9335 62.7673 20.803 61.9187C19.586 61.0056 18.8594 59.5524 18.8594 58.0314C18.8594 55.3678 17.6857 52.8617 15.6389 51.1566C13.4556 49.3372 12.2031 46.6625 12.2031 43.8203V43.6118C12.2031 42.3227 12.8244 41.0979 13.9349 40.2847Z" fill="#202223"/>
<path d="M26.625 37.8529V41.0468H28.8438V37.8529C28.8438 36.0391 28.1371 34.334 26.8546 33.0515C25.9915 32.1884 25.5156 31.0402 25.5156 29.8199C25.5145 27.9007 25.9683 25.9782 26.828 24.2609L27.6168 22.6844L25.6332 21.6904L24.8445 23.2669C23.8305 25.2915 23.2958 27.5579 23.2969 29.821C23.2969 31.6338 24.0035 33.3378 25.286 34.6202C26.1491 35.4833 26.625 36.6326 26.625 37.8529Z" fill="#202223"/>
<path d="M19.9077 49.7355C20.641 50.2236 21.0781 51.0412 21.0781 51.9221V54.3594H23.2969V51.9221C23.2969 50.2979 22.4904 48.7903 21.1391 47.8895C20.4058 47.4014 19.9688 46.5837 19.9688 45.7029C19.9688 44.3284 20.3715 42.9971 21.1347 41.8523L22.0011 40.5521L20.1551 39.3218L19.2887 40.622C18.2814 42.1318 17.75 43.8891 17.75 45.7029C17.75 47.3281 18.5565 48.8347 19.9077 49.7355Z" fill="#202223"/>
<path d="M25.1906 55.7937L23.6219 57.3624C25.2616 59.0031 27.4426 59.9062 29.7634 59.9062H31.0625V57.6874H29.7634C28.035 57.6874 26.412 57.0151 25.1906 55.7937Z" fill="#202223"/>
<path d="M27.9208 16.6961C28.8704 15.2728 30.459 14.4219 32.1719 14.4219V12.2031C29.7168 12.2031 27.4371 13.4234 26.0759 15.4658L25.7031 16.0249L27.5491 17.2552L27.9208 16.6961Z" fill="#202223"/>
<path d="M45.4844 27.813V45.4843H47.7032V27.813C47.7032 22.4581 45.6175 17.4237 41.8312 13.6375L40.2626 15.2061C43.6295 18.5742 45.4844 23.0505 45.4844 27.813Z" fill="#202223"/>
<path d="M57.0929 9.84903C58.9078 11.664 59.9063 14.0758 59.9063 16.6406C59.9063 17.253 60.4033 17.75 61.0157 17.75C61.628 17.75 62.125 17.253 62.125 16.6406C62.125 14.0758 63.1235 11.664 64.9384 9.84903L66.2375 8.54995C66.5204 8.26706 66.6291 7.85437 66.5215 7.46831C66.415 7.08336 66.1088 6.78494 65.7205 6.68842L65.5896 6.65625C63.5495 6.14594 62.125 4.32212 62.125 2.21875C62.125 1.60638 61.628 1.10938 61.0157 1.10938C60.4033 1.10938 59.9063 1.60638 59.9063 2.21875C59.9063 4.32212 58.4818 6.14594 56.4428 6.65625L56.3097 6.68953C55.9214 6.78605 55.6163 7.08336 55.5087 7.46942C55.4011 7.85548 55.5098 8.26817 55.7927 8.55106L57.0929 9.84903ZM61.0157 5.94403C61.6258 6.87369 62.4612 7.65136 63.4596 8.19052L63.3697 8.28038C62.3824 9.26772 61.5914 10.3982 61.0157 11.6251C60.4399 10.3982 59.6489 9.26772 58.6616 8.28038L58.5717 8.19052C59.5701 7.65025 60.4055 6.87369 61.0157 5.94403Z" fill="#202223"/>
<path d="M7.76562 16.6406H9.98438V21.0781H7.76562V16.6406Z" fill="#202223"/>
<path d="M4.4375 23.2969H7.76562V25.5156H4.4375V23.2969Z" fill="#202223"/>
<path d="M9.98438 23.2969H13.3125V25.5156H9.98438V23.2969Z" fill="#202223"/>
<path d="M7.76562 27.7344H9.98438V32.1719H7.76562V27.7344Z" fill="#202223"/>
</svg>
